<svg xmlns="http://www.w3.org/2000/svg" viewBox="0 0 160 160">
  <defs>
    <linearGradient id="g" x1="0" x2="1">
      <stop offset="0" stop-color="#2b6cb0" />
      <stop offset="1" stop-color="#38b2ac" />
    </linearGradient>
  </defs>
  <rect width="160" height="160" rx="24" fill="none"/>
  <g transform="translate(20,20)">
    <circle cx="40" cy="40" r="36" fill="url(#g)" />
    <path d="M20 50c0-11 9-20 20-20s20 9 20 20-9 20-20 20S20 61 20 50z" fill="#fff" opacity="0.95"/>
    <ellipse cx="33" cy="38" rx="6" ry="8" fill="#2b6cb0" />
    <ellipse cx="47" cy="38" rx="6" ry="8" fill="#2b6cb0" />
    <path d="M60 22c8 0 18 6 22 14s2 26-8 32-44 8-58 0 0-46 30-46z" fill="#fff" opacity="0.85" />
    <path d="M78 10c6 6 6 18 0 24" stroke="#2b6cb0" stroke-width="4" fill="none" stroke-linecap="round"/>
  </g>
</svg>
